<svg width="48" height="48" viewBox="0 0 48 48" fill="none" xmlns="http://www.w3.org/2000/svg">
<path d="M39.0001 25.144L24.0001 40L9.00011 25.144C8.01073 24.1812 7.2314 23.024 6.71121 21.7453C6.19102 20.4665 5.94124 19.0939 5.97759 17.7139C6.01394 16.3338 6.33564 14.9763 6.92243 13.7267C7.50922 12.4771 8.34838 11.3625 9.38709 10.4531C10.4258 9.5438 11.6415 8.85937 12.9577 8.44295C14.2739 8.02653 15.6621 7.88716 17.0349 8.03359C18.4076 8.18003 19.7351 8.6091 20.9339 9.2938C22.1326 9.9785 23.1766 10.904 24.0001 12.012C24.8272 10.912 25.8724 9.99463 27.0703 9.3172C28.2682 8.63976 29.5931 8.21689 30.962 8.07503C32.3309 7.93317 33.7143 8.07538 35.0257 8.49277C36.337 8.91016 37.5482 9.59373 38.5832 10.5007C39.6183 11.4077 40.455 12.5186 41.041 13.7638C41.6269 15.009 41.9496 16.3618 41.9887 17.7374C42.0279 19.1131 41.7826 20.482 41.2684 21.7585C40.7541 23.035 39.9819 24.1916 39.0001 25.156" stroke="#2A2A2A" stroke-width="2" stroke-linecap="round" stroke-linejoin="round"/>
</svg>
