<svg width="48" height="48" viewBox="0 0 48 48" fill="none" xmlns="http://www.w3.org/2000/svg">
<path d="M13 13L35 35M13 25L23 35M25 13L35 23M12.828 12.828C13.5779 12.0779 13.9991 11.0607 13.9991 9.99999C13.9991 8.93934 13.5779 7.9221 12.828 7.17199L9.99999 4.34399L4.34399 9.99999L7.17199 12.828C7.9221 13.5779 8.93934 13.9991 9.99999 13.9991C11.0607 13.9991 12.0779 13.5779 12.828 12.828ZM35.172 35.172C34.4221 35.9221 34.0009 36.9393 34.0009 38C34.0009 39.0607 34.4221 40.0779 35.172 40.828L38 43.656L43.656 38L40.828 35.172C40.0779 34.4221 39.0607 34.0009 38 34.0009C36.9393 34.0009 35.9221 34.4221 35.172 35.172ZM44 5C24.034 10.202 8.746 20.904 4 44C23.966 38.798 39.254 28.096 44 5Z" stroke="#2A2A2A" stroke-width="2" stroke-linecap="round" stroke-linejoin="round"/>
</svg>
