<svg width="48" height="48" viewBox="0 0 48 48" fill="none" xmlns="http://www.w3.org/2000/svg">
<path d="M16.486 14.6801L3.72602 16.5301L3.50002 16.5761C3.1579 16.6669 2.84601 16.8469 2.5962 17.0977C2.3464 17.3485 2.16763 17.6611 2.07814 18.0035C1.98866 18.346 1.99167 18.7061 2.08688 19.047C2.18208 19.388 2.36605 19.6975 2.62002 19.9441L11.864 28.9421L9.68402 41.6521L9.65802 41.8721C9.63708 42.2259 9.71055 42.579 9.87092 42.8951C10.0313 43.2112 10.2728 43.479 10.5707 43.6711C10.8686 43.8632 11.2122 43.9727 11.5663 43.9883C11.9204 44.0039 12.2723 43.9252 12.586 43.7601L23.998 37.7601L35.384 43.7601L35.584 43.8521C35.9141 43.9821 36.2729 44.022 36.6235 43.9676C36.9741 43.9132 37.304 43.7665 37.5792 43.5426C37.8544 43.3187 38.0651 43.0256 38.1897 42.6934C38.3143 42.3611 38.3482 42.0018 38.288 41.6521L36.106 28.9421L45.354 19.9421L45.51 19.7721C45.7329 19.4976 45.879 19.169 45.9335 18.8197C45.9879 18.4704 45.9489 18.1128 45.8202 17.7836C45.6915 17.4543 45.4779 17.165 45.201 16.9451C44.9241 16.7253 44.5939 16.5828 44.244 16.5321L31.484 14.6801L25.78 3.12009C25.615 2.78516 25.3595 2.50312 25.0424 2.3059C24.7253 2.10868 24.3594 2.00415 23.986 2.00415C23.6126 2.00415 23.2467 2.10868 22.9296 2.3059C22.6126 2.50312 22.3571 2.78516 22.192 3.12009L16.486 14.6801Z" fill="#2A2A2A"/>
</svg>
