<svg width="48" height="48" viewBox="0 0 48 48" fill="none" xmlns="http://www.w3.org/2000/svg">
<path d="M29.4001 27C27.2001 23 26.5181 22 24.0001 22C21.4821 22 20.5281 23.51 18.3281 27.494C16.4441 30.9 12.6361 31.184 11.6861 34.076C11.4921 34.606 11.3961 35.43 11.4001 36C11.4001 38.352 12.9741 40 15.0001 40C17.5181 40 21.0001 38 24.0001 38C27.0001 38 30.4821 40 33.0001 40C35.0261 40 36.6001 38.354 36.6001 36C36.6001 35.43 36.5021 34.606 36.3081 34.076C35.3581 31.174 31.2841 30.406 29.4001 27Z" stroke="#2A2A2A" stroke-width="2" stroke-linecap="round" stroke-linejoin="round"/>
<path d="M40.3761 16.164C40.1192 16.0554 39.843 15.9996 39.5641 16H39.5341C38.0641 16.024 36.4141 17.5 35.5481 19.732C34.5101 22.402 34.9881 25.132 36.6241 25.836C36.8821 25.946 37.1581 26 37.4361 26C38.9141 26 40.5861 24.516 41.4581 22.268C42.4901 19.598 42.0021 16.868 40.3761 16.164Z" stroke="#2A2A2A" stroke-width="2" stroke-linecap="round" stroke-linejoin="round"/>
<path d="M18.9481 18C19.0581 18 19.1661 18 19.2741 17.978C21.1621 17.722 22.3401 15.286 21.9141 12.534C21.5081 9.94 19.8201 8 18.0501 8C17.9401 8 17.8321 8 17.7241 8.022C15.8361 8.278 14.6581 10.714 15.0841 13.466C15.4921 16.052 17.1801 18 18.9501 18H18.9481Z" stroke="#2A2A2A" stroke-width="2" stroke-linecap="round" stroke-linejoin="round"/>
<path d="M32.9121 13.466C33.3401 10.714 32.1621 8.27801 30.2721 8.02201C30.1647 8.00714 30.0565 7.99979 29.9481 8C28.1781 8 26.4921 9.94001 26.0881 12.534C25.6601 15.286 26.8381 17.722 28.7281 17.978C28.8361 17.992 28.9441 18 29.0521 18C30.8221 18 32.5121 16.052 32.9121 13.466Z" stroke="#2A2A2A" stroke-width="2" stroke-linecap="round" stroke-linejoin="round"/>
<path d="M11.3801 25.836C13.0121 25.132 13.4881 22.398 12.4521 19.732C11.5801 17.484 9.91014 16 8.43414 16C8.15414 16 7.88014 16.054 7.62014 16.164C5.98814 16.868 5.51214 19.602 6.54814 22.268C7.42014 24.516 9.09014 26 10.5661 26C10.8461 26 11.1201 25.946 11.3801 25.836Z" stroke="#2A2A2A" stroke-width="2" stroke-linecap="round" stroke-linejoin="round"/>
</svg>
