<svg width="48" height="48" viewBox="0 0 48 48" fill="none" xmlns="http://www.w3.org/2000/svg">
<path d="M14 42L18 34M26 42V34L20 28M20 28L22 16M20 28L16.346 25.564C15.6592 25.1063 15.1308 24.4473 14.8332 23.6775C14.5357 22.9077 14.4835 22.0646 14.684 21.264L15.244 19.03C15.4602 18.165 15.9592 17.397 16.6618 16.848C17.3644 16.2991 18.2303 16.0006 19.122 16H22M22 16L28 24L34 28M22 16L30 18L36 14M34 24V42M32 40H36M22 8C22 8.53043 22.2107 9.03914 22.5858 9.41421C22.9609 9.78929 23.4696 10 24 10C24.5304 10 25.0391 9.78929 25.4142 9.41421C25.7893 9.03914 26 8.53043 26 8C26 7.46957 25.7893 6.96086 25.4142 6.58579C25.0391 6.21071 24.5304 6 24 6C23.4696 6 22.9609 6.21071 22.5858 6.58579C22.2107 6.96086 22 7.46957 22 8Z" stroke="#2A2A2A" stroke-width="2" stroke-linecap="round" stroke-linejoin="round"/>
</svg>
