<svg width="48" height="48" viewBox="0 0 48 48" fill="none" xmlns="http://www.w3.org/2000/svg">
<path d="M30 36C30 37.0609 30.4214 38.0783 31.1716 38.8284C31.9217 39.5786 32.9391 40 34 40C35.0609 40 36.0783 39.5786 36.8284 38.8284C37.5786 38.0783 38 37.0609 38 36C38 34.9391 37.5786 33.9217 36.8284 33.1716C36.0783 32.4214 35.0609 32 34 32C32.9391 32 31.9217 32.4214 31.1716 33.1716C30.4214 33.9217 30 34.9391 30 36ZM30 36H14M30 28L32 32M18 28L12 40M30 10V8M24 10V8M18 10V8M38 16H10C10 19.1826 11.2643 22.2348 13.5147 24.4853C15.7652 26.7357 18.8174 28 22 28H26C29.1061 28.0022 32.0921 26.7999 34.3301 24.6458C36.568 22.4918 37.8835 19.554 38 16.45V16Z" stroke="#2A2A2A" stroke-width="2" stroke-linecap="round" stroke-linejoin="round"/>
</svg>
