<svg width="48" height="48" viewBox="0 0 48 48" fill="none" xmlns="http://www.w3.org/2000/svg">
<path d="M35 23L40 20M13 23L8 20M24 26H24.02M24 32H24.02M24 6C25.5638 5.99951 27.0935 6.45736 28.3999 7.31696C29.7063 8.17655 30.7321 9.40019 31.3505 10.8366C31.9689 12.2729 32.1527 13.8591 31.8793 15.3988C31.6059 16.9385 30.8872 18.3644 29.812 19.5C32.1397 20.788 33.9734 22.813 35.0249 25.2567C36.0764 27.7004 36.286 30.4242 35.6209 33C34.9558 35.5758 33.4535 37.8576 31.3504 39.4866C29.2472 41.1157 26.6623 41.9997 24.002 41.9997C21.3417 41.9997 18.7568 41.1157 16.6537 39.4866C14.5505 37.8576 13.0483 35.5758 12.3831 33C11.718 30.4242 11.9277 27.7004 12.9791 25.2567C14.0306 22.813 15.8643 20.788 18.192 19.5C17.1171 18.3646 16.3985 16.9391 16.1249 15.3998C15.8513 13.8604 16.0348 12.2746 16.6527 10.8384C17.2706 9.40219 18.2958 8.17851 19.6016 7.31861C20.9074 6.45871 22.4365 6.00029 24 6Z" stroke="#2A2A2A" stroke-width="2" stroke-linecap="round" stroke-linejoin="round"/>
</svg>
