<svg width="48" height="48" viewBox="0 0 48 48" fill="none" xmlns="http://www.w3.org/2000/svg">
<path d="M35.106 33.5C32.293 30.6873 28.4779 29.1072 24.5 29.1072C20.522 29.1072 16.707 30.6873 13.894 33.5M36 7.60804C33.2438 6.01681 29.9685 5.58559 26.8944 6.40925C23.8203 7.2329 21.1993 9.24396 19.608 12L40.392 24C41.9832 21.2439 42.4144 17.9685 41.5908 14.8945C40.7671 11.8204 38.756 9.19938 36 7.60804ZM36 7.60804C37.914 8.71204 36.78 14.2601 33.464 20.0001M36 7.60804C34.086 6.50404 29.85 10.2601 26.536 16.0001M30 18L24 28.392M6 38.5C6.62258 38.1904 7.30499 38.0198 8 38C8.77899 37.9836 9.55025 38.1572 10.2472 38.5056C10.9441 38.8541 11.5457 39.367 12 40C12.4543 40.6329 13.0559 41.1458 13.7528 41.4943C14.4498 41.8427 15.221 42.0163 16 42C16.779 42.0163 17.5502 41.8427 18.2472 41.4943C18.9441 41.1458 19.5457 40.6329 20 40C20.4543 39.367 21.0559 38.8541 21.7528 38.5056C22.4498 38.1572 23.221 37.9836 24 38C24.779 37.9836 25.5502 38.1572 26.2472 38.5056C26.9441 38.8541 27.5457 39.367 28 40C28.4543 40.6329 29.0559 41.1458 29.7528 41.4943C30.4498 41.8427 31.221 42.0163 32 42C32.779 42.0163 33.5502 41.8427 34.2472 41.4943C34.9441 41.1458 35.5457 40.6329 36 40C36.4543 39.367 37.0559 38.8541 37.7528 38.5056C38.4498 38.1572 39.221 37.9836 40 38C40.695 38.0198 41.3774 38.1904 42 38.5" stroke="#2A2A2A" stroke-width="2" stroke-linecap="round" stroke-linejoin="round"/>
</svg>
