<svg width="148" height="175" viewBox="0 0 148 175" fill="none" xmlns="http://www.w3.org/2000/svg">
<path d="M139.57 19.5261C139.576 19.4104 139.576 19.2945 139.57 19.1788C139.594 18.7769 139.545 18.374 139.423 17.9901C139.295 17.609 139.096 17.2555 138.837 16.9484L138.598 16.6946C138.385 16.4749 138.143 16.286 137.879 16.1337C137.799 16.1337 137.732 16.0269 137.639 15.9868C137.311 15.8287 136.961 15.7249 136.6 15.6796L57.6791 6.3306C56.3184 6.28922 54.9873 6.73418 53.9235 7.58604C53.3413 8.05322 52.8569 8.63117 52.498 9.28669C52.1392 9.9422 51.9131 10.6624 51.8326 11.4058C51.6681 12.8678 52.0844 14.3361 52.9913 15.4926L71.7427 40.5613V71.8003C71.7008 73.1587 72.1395 74.4882 72.9812 75.5533C73.4471 76.1372 74.0234 76.623 74.677 76.9829C75.3307 77.3427 76.0488 77.5695 76.7901 77.6501H77.4027C78.7903 77.6353 80.127 77.1238 81.1716 76.2077L138.584 21.4493C138.843 21.1967 139.059 20.9035 139.224 20.5812C139.269 20.4902 139.309 20.3965 139.343 20.3007C139.452 20.0534 139.528 19.793 139.57 19.5261ZM59.9298 13.4358L120.659 20.6479L76.4039 35.4194L59.9298 13.4358ZM78.5747 69.3696V41.8969L122.856 27.1121L78.5747 69.3696Z" fill="#50EFD4"/>
<path d="M119.061 122.071C113.667 129.283 104.93 137.016 90.5606 137.016C65.1371 137.016 48.703 114.859 48.703 81.4699C48.703 70.7853 52.0324 61.4363 57.5593 56.4413C61.6345 47.4128 53.8969 42.0705 42.2971 47.2926C22.4004 57.1224 8.4035 76.7687 8.4035 104.054C8.4035 137.791 34.8392 168.683 75.152 168.683C110.324 168.683 128.037 147.314 128.809 124.903C128.809 119.24 122.39 117.958 119.061 122.071Z" fill="#763FC4"/>
</svg>
