<svg width="185" height="53" viewBox="0 0 185 53" fill="none" xmlns="http://www.w3.org/2000/svg">
<path d="M26.0495 12.8553V13.0345C26.0495 14.3257 23.7228 14.9734 22.9349 17.0059L16.9314 32.9406C16.8495 33.3035 16.6384 33.625 16.3368 33.8457C16.0352 34.0665 15.6635 34.1718 15.2899 34.1422H11.1864C10.3 34.1422 9.92656 33.7715 9.50799 32.9406L2.46215 17.01C1.57988 15.1159 0 14.3298 0 13.0385V12.8553C0 12.2972 0.410358 11.9754 1.07103 11.9754H11.7691C11.8988 11.9629 12.0297 11.9775 12.1533 12.0183C12.277 12.0591 12.3906 12.1253 12.4869 12.2124C12.5832 12.2995 12.66 12.4058 12.7124 12.5242C12.7647 12.6427 12.7915 12.7707 12.7909 12.9001V13.0834C12.7909 14.3298 11.0715 14.7452 11.9989 17.1566L15.9999 27.5924L19.3976 18.3094C20.6533 14.6434 17.7234 14.3379 17.7234 13.0915V12.9082C17.7245 12.775 17.7542 12.6436 17.8104 12.5227C17.8665 12.4017 17.9479 12.294 18.0492 12.2066C18.1504 12.1191 18.2692 12.0541 18.3977 12.0156C18.5261 11.9772 18.6613 11.9663 18.7944 11.9836H24.9785C25.631 11.9754 26.0495 12.2972 26.0495 12.8553Z" fill="#763FC4"/>
<path d="M26.7184 33.2664V33.0791C26.7184 31.739 28.5773 31.185 28.5773 29.0628V20.289C28.5773 18.1627 26.7184 17.5192 26.7184 16.4071V16.2239C26.7184 15.7147 27.1287 15.4866 27.7894 15.1607L34.8106 11.7433C36.1156 11.0997 36.9076 11.8369 36.9076 12.7127V29.0628C36.9076 31.185 39.0004 31.739 39.0004 33.0791V33.2664C39.0004 33.8204 38.5326 34.1422 37.835 34.1422H27.8181C27.1287 34.1422 26.7184 33.8082 26.7184 33.2664ZM27.4611 4.63131C27.4447 1.99998 29.5909 0 32.7958 0C36.0007 0 38.0976 1.98368 38.0976 4.61502C38.0976 7.24636 35.9596 9.25041 32.7958 9.25041C29.6319 9.25041 27.4447 7.21784 27.4447 4.63131H27.4611Z" fill="#763FC4"/>
<path d="M65.4562 32.8958C65.4562 34.0974 62.756 34.4192 60.1995 34.4192C57.4049 34.4192 56.059 33.8652 55.6855 32.2033C54.7089 33.5434 52.8459 34.6025 49.7764 34.6025C44.7987 34.6025 40.9824 32.3418 40.9824 27.5842C40.9824 22.9203 44.9383 20.5211 49.3578 20.5211C51.0002 20.4768 52.624 20.8752 54.0564 21.6739V21.5354C53.4983 16.0853 53.1742 13.731 50.753 13.731C47.544 13.731 48.8449 19.9183 44.7044 19.9183C42.7511 19.9183 41.4502 18.7167 41.4502 16.9163C41.4502 13.1322 46.0093 11.5151 50.753 11.5151C56.9864 11.5151 61.3156 15.1159 62.0584 20.8429L63.0843 29.1076C63.5029 32.3866 65.4562 31.6005 65.4562 32.8958ZM54.754 28.9202L54.5694 26.794C54.2411 24.0242 53.0346 22.961 51.6969 22.961C50.3591 22.961 49.325 24.2075 49.325 26.1015C49.325 29.3602 50.4412 32.244 52.3493 32.244C53.8718 32.2481 54.754 30.4925 54.754 28.9202Z" fill="#763FC4"/>
<path d="M60.8971 38.3906C60.8971 36.4069 62.3826 35.0668 64.34 35.0668C69.1289 35.0668 67.1304 40.7449 70.0152 40.7449C71.037 40.7449 71.7346 39.9303 71.7346 38.8061C71.7346 35.2949 68.6652 34.6961 68.6652 31.8326V20.289C68.6652 18.1179 66.8021 17.5639 66.8021 16.4071V16.2238C66.8021 15.7147 67.2125 15.4866 67.828 15.1607L74.8985 11.7432C76.2034 11.0996 77.0406 11.8369 77.0406 12.7127V34.4639C77.0406 36.7735 76.3881 38.9445 75.2268 40.3295C73.5854 42.2235 71.6895 43.3315 68.341 43.3315C63.9666 43.3315 60.8971 41.8081 60.8971 38.3906ZM66.9909 4.63129C66.9909 1.99995 69.1289 0.0162659 72.2927 0.0162659C75.4566 0.0162659 77.6028 1.99995 77.6028 4.63129C77.6028 7.26262 75.5099 9.25038 72.2968 9.25038C69.0837 9.25038 66.9909 7.21781 66.9909 4.63129Z" fill="#763FC4"/>
<path d="M101.092 27.4905C100.993 30.0322 97.7431 34.6228 91.6493 34.6228C84.903 34.6228 80.1593 29.9589 80.1593 22.9407C80.1593 16.1057 85.494 11.5355 91.6042 11.5355C97.7144 11.5355 100.493 14.953 100.493 17.8613C100.5 18.4602 100.332 19.0483 100.009 19.5544C99.6867 20.0605 99.2231 20.4628 98.6747 20.7126L89.417 25.8856C89.9577 26.8046 90.7329 27.5659 91.6644 28.093C92.5958 28.62 93.6508 28.8941 94.7229 28.8876C96.7213 28.8876 98.5351 27.963 99.3764 26.851C100.021 26.1993 101.137 26.4763 101.092 27.4905ZM87.6483 18.6271C87.6203 20.2693 87.8558 21.9055 88.3459 23.4743L92.6711 20.8877C93.0494 20.6214 93.357 20.2682 93.5678 19.8582C93.7787 19.4482 93.8863 18.9937 93.8817 18.5334C93.8817 17.0548 93.1348 13.7758 90.763 13.7758C88.8548 13.7758 87.6483 15.9468 87.6483 18.6271Z" fill="#763FC4"/>
<path d="M80.6968 46.6104V45.7673H83.8894V46.6104H80.6968ZM83.2411 50.309C82.8917 50.3204 82.5435 50.2651 82.2152 50.146C81.9545 50.0442 81.74 49.8516 81.6119 49.6043C81.4664 49.2778 81.399 48.9223 81.415 48.5656V44.4923H82.4942V48.6267C82.4875 48.7187 82.5001 48.8111 82.5312 48.898C82.5623 48.9849 82.6112 49.0645 82.6748 49.1318C82.7429 49.1943 82.8232 49.2424 82.9107 49.2733C82.9981 49.3041 83.091 49.3169 83.1836 49.311H83.8894V50.2927L83.2411 50.309Z" fill="#763FC4"/>
<path d="M86.4008 50.3905C86.1739 50.4032 85.947 50.3638 85.7378 50.2756C85.5286 50.1873 85.3427 50.0524 85.1944 49.8813C84.8764 49.4403 84.724 48.9028 84.7635 48.362V45.7632H85.9207V48.4719C85.9144 48.5911 85.9318 48.7104 85.9719 48.8229C86.0121 48.9355 86.0741 49.039 86.1546 49.1277C86.2363 49.2108 86.335 49.2756 86.444 49.3178C86.553 49.3599 86.6698 49.3785 86.7866 49.3721C86.9072 49.3757 87.0273 49.3548 87.1395 49.3107C87.2517 49.2665 87.3536 49.2001 87.4391 49.1155C87.5253 49.0226 87.5919 48.9134 87.6349 48.7945C87.6779 48.6755 87.6964 48.5492 87.6894 48.4231V45.7754H88.8466V50.256H87.9315V48.3497H88.0218C88.0323 48.733 87.974 49.1151 87.8494 49.478C87.752 49.7568 87.5681 49.9978 87.3242 50.1664C87.062 50.3267 86.7578 50.4061 86.4501 50.3945L86.4008 50.3905Z" fill="#763FC4"/>
<path d="M93.2538 50.366C92.9574 50.3725 92.6632 50.3141 92.3921 50.1949C92.1562 50.0879 91.9567 49.9153 91.8176 49.698C91.6778 49.4642 91.608 49.1958 91.6165 48.9241C91.6033 48.6333 91.6885 48.3465 91.8586 48.1094C92.0393 47.8891 92.28 47.725 92.5521 47.6369C92.8885 47.5282 93.2407 47.4759 93.5944 47.4821H94.6408V48.1664H93.578C93.3564 48.151 93.1374 48.221 92.9666 48.362C92.8991 48.4262 92.8453 48.5034 92.8086 48.5888C92.7719 48.6742 92.753 48.7661 92.753 48.8589C92.753 48.9518 92.7719 49.0436 92.8086 49.129C92.8453 49.2144 92.8991 49.2916 92.9666 49.3558C93.139 49.4935 93.3572 49.5618 93.578 49.5473C93.7303 49.5475 93.8811 49.517 94.0212 49.4577C94.1632 49.3962 94.2823 49.2923 94.3618 49.1603C94.4644 48.9876 94.5183 48.7906 94.5177 48.5901L94.8009 48.9119C94.7821 49.1885 94.7037 49.458 94.5711 49.7021C94.4518 49.9136 94.2718 50.0852 94.054 50.1949C93.8047 50.314 93.5304 50.3727 93.2538 50.366ZM94.7065 50.252V48.9241H94.5177V47.4455C94.526 47.3412 94.5132 47.2363 94.48 47.137C94.4469 47.0377 94.3942 46.9459 94.3249 46.8671C94.1608 46.7288 93.9486 46.6601 93.734 46.6756H93.2374H92.6506L92.1212 46.7082V45.7347L92.5562 45.698L93.0487 45.6777H93.5288C93.9227 45.666 94.3153 45.7282 94.686 45.861C94.9772 45.9685 95.2241 46.1691 95.3877 46.4312C95.5569 46.742 95.6378 47.0926 95.6216 47.4455V50.2275L94.7065 50.252Z" fill="#763FC4"/>
<path d="M97.7103 50.252L96.2987 45.7714H97.4846L98.8429 50.252H97.7103ZM98.0509 50.252V49.3111H99.282V50.252H98.0509ZM98.5105 50.252L99.6718 45.7714H100.788L99.5569 50.252H98.5105Z" fill="#763FC4"/>
<path d="M103.582 50.4068C103.232 50.4146 102.883 50.3479 102.561 50.2112C102.284 50.0877 102.037 49.9056 101.838 49.6776C101.648 49.4586 101.502 49.2056 101.408 48.9322C101.31 48.6616 101.26 48.3764 101.26 48.0891V47.9302C101.259 47.6374 101.309 47.3467 101.408 47.0707C101.499 46.7961 101.646 46.5426 101.838 46.3253C102.035 46.1039 102.277 45.9274 102.548 45.808C102.857 45.6725 103.192 45.6058 103.529 45.6125C103.962 45.5965 104.39 45.707 104.76 45.9302C105.081 46.1274 105.339 46.4095 105.507 46.7449C105.672 47.0912 105.756 47.4698 105.753 47.8528V48.2601H101.756V47.5555H105.039L104.682 47.9017C104.688 47.6518 104.647 47.4029 104.559 47.1685C104.484 46.9767 104.351 46.8129 104.177 46.7001C103.987 46.5829 103.765 46.5248 103.541 46.5331C103.313 46.5258 103.087 46.5868 102.893 46.7082C102.708 46.8279 102.565 47.0015 102.483 47.2052C102.386 47.4545 102.34 47.7203 102.347 47.9872C102.341 48.2419 102.386 48.4952 102.479 48.7326C102.562 48.9395 102.705 49.1178 102.889 49.2459C103.099 49.3756 103.344 49.4394 103.591 49.4292C103.828 49.4447 104.065 49.3954 104.276 49.2866C104.435 49.1959 104.556 49.0513 104.617 48.8793H105.679C105.62 49.1774 105.489 49.4569 105.298 49.6939C105.106 49.9287 104.86 50.1133 104.58 50.2316C104.263 50.3579 103.923 50.4176 103.582 50.4068Z" fill="#763FC4"/>
<path d="M106.714 50.252V45.7714H107.629V47.6981H107.559C107.547 47.3084 107.61 46.9201 107.744 46.5535C107.846 46.2726 108.035 46.0314 108.285 45.8651C108.557 45.7027 108.871 45.622 109.188 45.6329H109.237C109.469 45.616 109.702 45.6541 109.916 45.744C110.13 45.834 110.319 45.9732 110.468 46.1502C110.777 46.6025 110.921 47.1454 110.879 47.6899V50.2561H109.721V47.5881C109.732 47.3432 109.647 47.1037 109.483 46.9201C109.401 46.8321 109.299 46.7634 109.186 46.719C109.073 46.6747 108.952 46.6557 108.831 46.6634C108.705 46.6586 108.579 46.6792 108.461 46.724C108.344 46.7688 108.236 46.8369 108.146 46.9241C108.056 47.0164 107.987 47.1258 107.942 47.2455C107.897 47.3653 107.877 47.4929 107.883 47.6207V50.2561L106.714 50.252Z" fill="#763FC4"/>
<path d="M111.523 46.6104V45.7673H114.716V46.6104H111.523ZM114.067 50.309C113.716 50.3207 113.367 50.2654 113.037 50.146C112.776 50.0442 112.562 49.8516 112.434 49.6043C112.288 49.2778 112.221 48.9223 112.237 48.5656V44.4923H113.316V48.6267C113.307 48.7189 113.318 48.8121 113.349 48.8995C113.38 48.9869 113.431 49.0663 113.497 49.1318C113.563 49.1974 113.643 49.2475 113.731 49.2785C113.819 49.3095 113.913 49.3206 114.006 49.311H114.716V50.2927L114.067 50.309Z" fill="#763FC4"/>
<path d="M117.227 50.3905C116.999 50.4032 116.772 50.3639 116.562 50.2756C116.352 50.1873 116.165 50.0524 116.016 49.8813C115.698 49.4403 115.546 48.9028 115.585 48.362V45.7632H116.743V48.4719C116.736 48.5911 116.754 48.7104 116.794 48.8229C116.834 48.9355 116.896 49.039 116.977 49.1277C117.058 49.2108 117.157 49.2756 117.266 49.3178C117.375 49.3599 117.492 49.3785 117.609 49.3721C117.729 49.3767 117.85 49.3562 117.962 49.312C118.074 49.2679 118.176 49.2009 118.261 49.1155C118.348 49.0229 118.415 48.9139 118.459 48.7949C118.503 48.676 118.522 48.5495 118.515 48.4231V45.7754H119.669V50.256H118.753V48.3497H118.848C118.857 48.7333 118.797 49.1154 118.671 49.478C118.575 49.7564 118.393 49.9974 118.15 50.1664C117.888 50.3255 117.584 50.4048 117.276 50.3945L117.227 50.3905Z" fill="#763FC4"/>
<path d="M120.998 50.252V45.7714H121.921V47.6573H121.897C121.856 47.1371 122.002 46.6194 122.307 46.195C122.46 46.0235 122.65 45.8893 122.864 45.8031C123.078 45.7169 123.308 45.681 123.538 45.6981H123.706V46.7001H123.39C123.227 46.6894 123.063 46.7113 122.908 46.7644C122.753 46.8176 122.61 46.901 122.488 47.0096C122.375 47.1284 122.289 47.2689 122.234 47.4224C122.179 47.576 122.156 47.7391 122.168 47.9017V50.2398L120.998 50.252Z" fill="#763FC4"/>
<path d="M125.721 50.366C125.426 50.3722 125.133 50.3138 124.864 50.1949C124.627 50.0889 124.427 49.9161 124.289 49.698C124.148 49.4646 124.077 49.1962 124.084 48.9241C124.07 48.6326 124.157 48.3452 124.33 48.1094C124.51 47.89 124.749 47.7261 125.02 47.6369C125.356 47.5282 125.708 47.4759 126.062 47.4821H127.112V48.1665H126.045C125.824 48.1526 125.606 48.2225 125.434 48.362C125.368 48.4268 125.315 48.5041 125.279 48.5895C125.243 48.6748 125.224 48.7664 125.224 48.8589C125.224 48.9514 125.243 49.043 125.279 49.1284C125.315 49.2137 125.368 49.291 125.434 49.3559C125.607 49.4925 125.825 49.5607 126.045 49.5473C126.199 49.548 126.351 49.5175 126.493 49.4577C126.635 49.3962 126.754 49.2923 126.833 49.1603C126.935 48.9872 126.987 48.7902 126.985 48.5901L127.268 48.9119C127.251 49.1882 127.174 49.4577 127.043 49.7021C126.921 49.9119 126.742 50.0829 126.526 50.1949C126.275 50.3136 125.999 50.3722 125.721 50.366ZM127.178 50.252V48.9241H126.985V47.4455C126.994 47.3415 126.982 47.2367 126.949 47.1374C126.917 47.0381 126.865 46.9462 126.796 46.8671C126.632 46.7288 126.42 46.6601 126.206 46.6756H125.705H125.118L124.593 46.7082V45.7347L125.024 45.6981L125.52 45.6777H125.996C126.392 45.6657 126.786 45.7279 127.158 45.861C127.448 45.9673 127.694 46.1683 127.855 46.4312C128.028 46.7408 128.11 47.092 128.093 47.4455V50.2275L127.178 50.252Z" fill="#763FC4"/>
<path d="M133.149 50.4067C132.799 50.414 132.453 50.3473 132.131 50.2112C131.853 50.0879 131.605 49.9058 131.405 49.6776C131.218 49.4564 131.072 49.204 130.974 48.9322C130.877 48.6616 130.827 48.3764 130.826 48.089V47.9302C130.826 47.6374 130.875 47.3467 130.974 47.0707C131.069 46.7976 131.215 46.5447 131.405 46.3253C131.603 46.1043 131.846 45.9279 132.119 45.808C132.427 45.6718 132.762 45.605 133.1 45.6125C133.532 45.5969 133.96 45.7074 134.331 45.9302C134.649 46.1291 134.906 46.4109 135.073 46.7449C135.24 47.0908 135.325 47.4695 135.324 47.8528V48.2601H131.319V47.5554H134.601L134.244 47.9017C134.251 47.6517 134.209 47.4029 134.121 47.1685C134.048 46.9771 133.916 46.8133 133.744 46.7001C133.553 46.5838 133.332 46.5258 133.108 46.5331C132.879 46.5245 132.652 46.5856 132.459 46.7082C132.274 46.8281 132.131 47.0016 132.049 47.2051C131.953 47.4545 131.907 47.7202 131.914 47.9872C131.91 48.2417 131.954 48.4946 132.045 48.7326C132.128 48.9401 132.271 49.1187 132.455 49.2459C132.664 49.3748 132.907 49.4386 133.153 49.4292C133.385 49.4427 133.616 49.3935 133.822 49.2866C133.981 49.1959 134.102 49.0513 134.162 48.8793H135.225C135.166 49.1774 135.035 49.4568 134.844 49.6939C134.652 49.9287 134.405 50.1133 134.125 50.2316C133.815 50.3552 133.483 50.4148 133.149 50.4067Z" fill="#763FC4"/>
<path d="M136.284 50.252V45.7714H137.199V47.698H137.105C137.093 47.3117 137.153 46.9266 137.281 46.5616C137.376 46.2814 137.558 46.0387 137.802 45.8691C138.056 45.703 138.356 45.6204 138.66 45.6329H138.709C139.017 45.6205 139.321 45.7031 139.579 45.8691C139.821 46.0401 140.002 46.2825 140.096 46.5616C140.217 46.9281 140.274 47.3125 140.264 47.698H139.977C139.967 47.3115 140.028 46.9263 140.158 46.5616C140.255 46.2817 140.439 46.0395 140.683 45.8691C140.937 45.7035 141.237 45.6209 141.541 45.6329H141.59C141.899 45.6205 142.204 45.703 142.464 45.8691C142.709 46.0392 142.894 46.2814 142.993 46.5616C143.121 46.9266 143.181 47.3117 143.17 47.698V50.2561H142.029V47.5881C142.041 47.3453 141.964 47.1064 141.811 46.916C141.735 46.8307 141.639 46.7637 141.533 46.72C141.426 46.6762 141.311 46.6569 141.196 46.6634C141.077 46.658 140.957 46.6785 140.847 46.7235C140.736 46.7686 140.637 46.837 140.556 46.9241C140.389 47.1171 140.302 47.3663 140.314 47.6207V50.2561H139.156V47.5881C139.168 47.3453 139.091 47.1064 138.939 46.916C138.862 46.8307 138.767 46.7637 138.66 46.72C138.554 46.6762 138.439 46.6569 138.323 46.6634C138.204 46.658 138.085 46.6785 137.974 46.7235C137.864 46.7686 137.764 46.837 137.683 46.9241C137.516 47.1171 137.429 47.3663 137.441 47.6207V50.2561L136.284 50.252Z" fill="#763FC4"/>
<path d="M144.413 51.9016V45.7673H145.312V47.7021H145.172C145.178 47.3024 145.276 46.9093 145.459 46.5534C145.61 46.2616 145.846 46.0216 146.137 45.8651C146.428 45.7115 146.754 45.6331 147.085 45.637C147.384 45.6316 147.681 45.6914 147.954 45.8121C148.208 45.9259 148.434 46.091 148.619 46.2968C148.803 46.5125 148.942 46.7615 149.03 47.03C149.13 47.3168 149.18 47.6185 149.177 47.9221V48.0972C149.182 48.4046 149.133 48.7104 149.034 49.0015C148.944 49.2692 148.805 49.5179 148.623 49.7347C148.438 49.9452 148.21 50.1145 147.954 50.2316C147.679 50.3516 147.381 50.4114 147.08 50.4068C146.759 50.4105 146.441 50.3394 146.153 50.199C145.867 50.0511 145.632 49.823 145.476 49.5432C145.287 49.1923 145.187 48.8008 145.185 48.4027L145.55 48.9567V51.9098L144.413 51.9016ZM146.81 49.4332C147.04 49.4382 147.267 49.3759 147.462 49.254C147.652 49.1277 147.802 48.9514 147.897 48.7449C148.007 48.5145 148.061 48.2623 148.057 48.0076C148.064 47.7501 148.009 47.4946 147.897 47.2622C147.799 47.0632 147.649 46.8942 147.462 46.7734C147.267 46.6516 147.04 46.5892 146.81 46.5942C146.591 46.5909 146.375 46.6427 146.182 46.7449C145.988 46.8442 145.826 46.9951 145.714 47.1807C145.591 47.3906 145.53 47.6305 145.537 47.8732V48.2031C145.528 48.4419 145.593 48.6778 145.722 48.8793C145.844 49.0521 146.008 49.1921 146.198 49.2866C146.387 49.3832 146.597 49.4335 146.81 49.4332Z" fill="#763FC4"/>
<path d="M149.826 46.6268V45.7673H151.615V46.6268H149.826ZM150.884 45.2337C150.792 45.2413 150.7 45.2292 150.613 45.1983C150.526 45.1674 150.446 45.1184 150.38 45.0545C150.271 44.9307 150.214 44.7705 150.22 44.6064C150.213 44.4422 150.27 44.2818 150.38 44.1584C150.447 44.0966 150.527 44.0495 150.614 44.02C150.701 43.9906 150.793 43.9794 150.884 43.9873C150.975 43.9793 151.066 43.9904 151.151 44.0199C151.237 44.0494 151.315 44.0966 151.381 44.1584C151.49 44.2818 151.548 44.4422 151.541 44.6064C151.547 44.7705 151.49 44.9307 151.381 45.0545C151.315 45.1206 151.234 45.1711 151.145 45.2021C151.056 45.2331 150.962 45.2439 150.868 45.2337H150.884ZM150.474 50.252V45.7714H151.631V50.252H150.474Z" fill="#763FC4"/>
<path d="M154.951 50.4068C154.6 50.4146 154.252 50.3479 153.929 50.2112C153.652 50.0877 153.406 49.9056 153.207 49.6776C153.017 49.4586 152.871 49.2056 152.776 48.9322C152.679 48.6616 152.629 48.3764 152.628 48.0891V47.9302C152.628 47.6374 152.678 47.3467 152.776 47.0707C152.868 46.7961 153.015 46.5426 153.207 46.3253C153.403 46.1039 153.645 45.9274 153.917 45.808C154.226 45.6725 154.56 45.6058 154.898 45.6125C155.331 45.5965 155.759 45.707 156.129 45.9302C156.449 46.1274 156.708 46.4095 156.876 46.7449C157.04 47.0912 157.125 47.4698 157.122 47.8528V48.2601H153.109V47.5555H156.391L156.034 47.9017C156.041 47.6518 155.999 47.4029 155.911 47.1685C155.836 46.9767 155.703 46.8129 155.53 46.7001C155.339 46.5829 155.118 46.5248 154.894 46.5331C154.665 46.5258 154.439 46.5868 154.245 46.7082C154.06 46.8279 153.917 47.0015 153.835 47.2052C153.739 47.4545 153.693 47.7203 153.699 47.9872C153.693 48.2419 153.738 48.4952 153.831 48.7326C153.915 48.9395 154.057 49.1178 154.241 49.2459C154.451 49.3756 154.696 49.4394 154.943 49.4292C155.184 49.4387 155.423 49.3808 155.632 49.2622C155.791 49.1715 155.912 49.0269 155.973 48.8548H157.036C156.976 49.1529 156.846 49.4324 156.654 49.6695C156.463 49.9043 156.216 50.0889 155.936 50.2072C155.625 50.3402 155.29 50.4082 154.951 50.4068Z" fill="#763FC4"/>
<path d="M157.758 50.2519V49.3436L159.99 46.6838V46.8182L159.814 46.586L159.953 46.6512H157.75V45.7673H161.193V46.6756L158.964 49.3355V49.2133L159.149 49.4414L159.005 49.368H161.287V50.2519H157.758Z" fill="#763FC4"/>
<path d="M163.462 50.366C163.167 50.3722 162.874 50.3138 162.604 50.1949C162.368 50.0879 162.169 49.9153 162.03 49.698C161.889 49.4646 161.818 49.1962 161.825 48.9241C161.811 48.6326 161.897 48.3452 162.071 48.1094C162.251 47.89 162.49 47.7261 162.76 47.6369C163.097 47.5282 163.449 47.4759 163.803 47.4821H164.853V48.1665H163.778C163.558 48.1516 163.34 48.2216 163.171 48.362C163.103 48.4262 163.049 48.5034 163.013 48.5888C162.976 48.6742 162.957 48.7661 162.957 48.8589C162.957 48.9518 162.976 49.0437 163.013 49.1291C163.049 49.2145 163.103 49.2916 163.171 49.3559C163.342 49.4929 163.558 49.5612 163.778 49.5473C163.932 49.548 164.084 49.5175 164.225 49.4577C164.367 49.3962 164.486 49.2923 164.566 49.1603C164.667 48.9872 164.719 48.7902 164.718 48.5901L165.001 48.9119C164.983 49.1882 164.906 49.4577 164.775 49.7021C164.653 49.9119 164.474 50.0829 164.258 50.1949C164.01 50.3128 163.737 50.3714 163.462 50.366ZM164.919 50.252V48.9241H164.726V47.4455C164.735 47.3415 164.722 47.2367 164.69 47.1374C164.658 47.0381 164.606 46.9462 164.537 46.8671C164.373 46.7288 164.161 46.6601 163.946 46.6756H163.445H162.863L162.333 46.7082V45.7347L162.744 45.6981L163.24 45.6777H163.716C164.112 45.6657 164.506 45.7279 164.878 45.861C165.168 45.9673 165.414 46.1683 165.575 46.4312C165.748 46.7408 165.83 47.092 165.813 47.4455V50.2275L164.919 50.252Z" fill="#763FC4"/>
<path d="M168.866 50.252V44.2276H170.024V47.7428H169.822C169.814 47.3527 169.874 46.964 169.999 46.5942C170.095 46.3079 170.277 46.0577 170.52 45.8773C170.777 45.703 171.083 45.6158 171.394 45.6288H171.447C171.671 45.6151 171.895 45.6562 172.099 45.7485C172.303 45.8409 172.481 45.9816 172.617 46.1583C172.917 46.6129 173.061 47.1516 173.027 47.694V50.252H171.862V47.584C171.868 47.4607 171.85 47.3373 171.808 47.2212C171.765 47.105 171.7 46.9985 171.616 46.9078C171.531 46.8249 171.43 46.7601 171.32 46.7173C171.209 46.6746 171.09 46.6549 170.971 46.6593C170.844 46.6548 170.717 46.6772 170.599 46.7249C170.481 46.7727 170.374 46.8447 170.286 46.9363C170.106 47.1343 170.012 47.3948 170.024 47.6614V50.252H168.866Z" fill="#763FC4"/>
<path d="M176.425 50.4068C176.065 50.4144 175.706 50.3507 175.371 50.2194C175.08 50.1013 174.818 49.9252 174.599 49.7021C174.39 49.4915 174.227 49.2406 174.119 48.9648C174.013 48.6906 173.958 48.3992 173.959 48.1054V47.9302C173.956 47.6302 174.014 47.3326 174.127 47.0545C174.241 46.7767 174.408 46.5236 174.62 46.3091C174.84 46.0879 175.104 45.9145 175.395 45.7999C176.057 45.5533 176.786 45.5533 177.447 45.7999C177.738 45.9145 178.002 46.0879 178.223 46.3091C178.432 46.5238 178.598 46.7769 178.711 47.0545C178.821 47.3334 178.877 47.6306 178.875 47.9302V48.1054C178.876 48.3992 178.821 48.6906 178.715 48.9648C178.604 49.239 178.441 49.4893 178.235 49.7021C178.016 49.9252 177.754 50.1013 177.463 50.2194C177.133 50.3484 176.78 50.4121 176.425 50.4068ZM176.425 49.4251C176.677 49.4331 176.926 49.3695 177.143 49.2418C177.335 49.1183 177.487 48.9431 177.582 48.7367C177.684 48.51 177.734 48.2639 177.73 48.0158C177.736 47.7631 177.684 47.5125 177.578 47.2826C177.481 47.0761 177.326 46.9021 177.131 46.7816C176.919 46.6522 176.674 46.587 176.425 46.5942C176.178 46.5871 175.934 46.6523 175.723 46.7816C175.527 46.9018 175.371 47.0758 175.272 47.2826C175.162 47.5113 175.107 47.7623 175.112 48.0158C175.108 48.2648 175.161 48.5114 175.268 48.7367C175.365 48.9428 175.519 49.1177 175.711 49.2418C175.926 49.37 176.174 49.4337 176.425 49.4251Z" fill="#763FC4"/>
<path d="M180.685 50.1501L179.22 45.7673H180.385L181.772 50.1501H180.685ZM179.671 52.0157V51.034H180.516C180.656 51.0388 180.795 51.0181 180.927 50.9729C181.035 50.9348 181.129 50.8653 181.198 50.7733C181.28 50.6618 181.337 50.534 181.366 50.3986L182.597 45.7673H183.701L182.363 50.6552C182.295 50.9488 182.168 51.2259 181.99 51.4699C181.828 51.6688 181.613 51.8185 181.37 51.9016C181.068 51.9969 180.751 52.0409 180.434 52.032L179.671 52.0157ZM181.074 50.1501V49.2458H182.039V50.1501H181.074Z" fill="#763FC4"/>
<path d="M114.19 12.0569C114.045 12.0556 113.905 12.0033 113.794 11.9093C113.684 11.8152 113.611 11.6855 113.588 11.543C113.565 11.4005 113.593 11.2546 113.668 11.1309C113.743 11.0073 113.86 10.914 113.997 10.8675L125.077 7.20154C125.155 7.17045 125.238 7.1555 125.322 7.1576C125.406 7.1597 125.489 7.17881 125.565 7.21375C125.641 7.24869 125.709 7.29872 125.765 7.36077C125.821 7.42282 125.864 7.49558 125.89 7.57458C125.917 7.65357 125.927 7.73714 125.92 7.82014C125.913 7.90314 125.889 7.98382 125.849 8.05723C125.809 8.13064 125.755 8.19521 125.689 8.24699C125.624 8.29878 125.548 8.33667 125.467 8.35835L114.387 12.0243C114.324 12.0478 114.257 12.0588 114.19 12.0569Z" fill="#50EFD4"/>
<path d="M114.601 18.3053H114.486C114.228 18.2758 113.991 18.1514 113.822 17.9568C113.652 17.7622 113.563 17.5115 113.571 17.2544V11.6495L110.177 7.16893C110.061 7.01571 109.991 6.83313 109.975 6.64219C109.959 6.45124 109.997 6.25968 110.086 6.08951C110.175 5.91934 110.31 5.77747 110.477 5.6802C110.643 5.58292 110.833 5.5342 111.026 5.53962H111.076L125.327 7.21374C125.444 7.22698 125.554 7.27296 125.645 7.34627C125.736 7.41958 125.804 7.51716 125.841 7.62755C125.878 7.73793 125.883 7.85653 125.854 7.96939C125.826 8.08225 125.765 8.18469 125.68 8.26464L115.282 18.0486L115.241 18.0812C115.06 18.2267 114.834 18.3058 114.601 18.3053ZM111.441 6.78197L114.683 11.0793C114.763 11.1848 114.806 11.3136 114.806 11.4459V16.8144L123.887 8.26057L111.441 6.78197Z" fill="#50EFD4"/>
<path d="M126.435 33.2623V33.079C126.435 31.7389 128.298 31.185 128.298 29.0628V20.2889C128.298 18.1627 126.435 17.515 126.435 16.4071V16.2238C126.435 15.7147 126.846 15.4866 127.506 15.1607L134.532 11.7432C135.833 11.0996 136.624 11.8369 136.624 12.7127V29.0628C136.624 31.185 138.717 31.7389 138.717 33.079V33.2623C138.717 33.8204 138.254 34.1422 137.556 34.1422H127.56C126.846 34.1422 126.435 33.8081 126.435 33.2623ZM127.182 4.63129C127.182 1.99995 129.32 0.0162659 132.517 0.0162659C135.713 0.0162659 137.823 1.99995 137.823 4.63129C137.823 7.26262 135.681 9.25038 132.517 9.25038C129.353 9.25038 127.19 7.21781 127.19 4.63129H127.182Z" fill="#763FC4"/>
<path d="M142.821 26.0689V15.1159H141.052C140.911 15.1187 140.77 15.0931 140.639 15.0407C140.507 14.9883 140.388 14.9101 140.287 14.8109C140.187 14.7117 140.108 14.5934 140.054 14.4632C140.001 14.3329 139.975 14.1933 139.977 14.0528V13.0345C139.967 12.8922 139.987 12.7494 140.037 12.6157C140.088 12.4821 140.166 12.3607 140.268 12.2598C140.369 12.159 140.492 12.081 140.626 12.0312C140.761 11.9815 140.905 11.961 141.048 11.9713H141.93C144.77 11.9713 147.002 10.1221 147.61 7.30744C147.641 6.99125 147.785 6.69655 148.016 6.47683C148.247 6.25711 148.55 6.12692 148.87 6.1099H149.936C150.103 6.09617 150.27 6.11813 150.428 6.17429C150.585 6.23044 150.728 6.31948 150.847 6.43537C150.967 6.55126 151.06 6.69129 151.12 6.84597C151.18 7.00065 151.206 7.16636 151.196 7.33188V11.9754H155.981C156.122 11.9721 156.263 11.9972 156.395 12.0491C156.526 12.1011 156.645 12.1788 156.746 12.2777C156.846 12.3766 156.925 12.4946 156.979 12.6247C157.032 12.7547 157.058 12.8941 157.056 13.0345V14.0528C157.059 14.1935 157.033 14.3333 156.98 14.4638C156.927 14.5944 156.848 14.7129 156.747 14.8122C156.647 14.9115 156.527 14.9896 156.395 15.0418C156.264 15.094 156.123 15.1192 155.981 15.1159H151.196V26.1993C151.196 27.7675 152.124 28.6921 153.289 28.6921C153.912 28.7342 154.535 28.5952 155.08 28.2922C155.625 27.9891 156.069 27.535 156.359 26.9854C157.011 26.1708 158.127 26.4315 158.127 27.3072C158.127 30.8632 155.476 34.6024 150.404 34.6024C145.796 34.6228 142.821 31.6493 142.821 26.0689Z" fill="#763FC4"/>
<path d="M159.104 23.014C159.104 16.179 165.013 11.5151 171.665 11.5151C178.641 11.5151 184.411 16.3175 184.411 23.1036C184.411 29.8897 178.785 34.6228 171.985 34.6228C164.874 34.6228 159.104 29.7105 159.104 23.014ZM175.929 26.6799C175.929 23.0792 174.02 13.7962 170.348 13.7962C168.111 13.7962 167.323 15.8328 167.323 19.568C167.323 23.3032 169.182 32.3622 172.949 32.3622C175.153 32.3418 175.945 30.1422 175.945 26.6596L175.929 26.6799Z" fill="#763FC4"/>
<path d="M122.147 26.2685C121.573 27.0966 120.803 27.7731 119.906 28.2395C119.008 28.7058 118.01 28.9479 116.997 28.9447C112.389 28.9447 109.414 24.9732 109.414 18.9733C109.414 17.0548 110.017 15.3766 111.018 14.4927C111.757 12.8634 110.353 11.9143 108.252 12.8634C104.645 14.6393 102.097 18.1587 102.097 23.0466C102.097 29.0832 106.89 34.6228 114.19 34.6228C120.563 34.6228 123.776 30.7899 123.916 26.7696C123.916 25.7594 122.742 25.5272 122.147 26.2685Z" fill="#763FC4"/>
</svg>
