<svg width="156" height="40" viewBox="0 0 156 40" fill="none" xmlns="http://www.w3.org/2000/svg">
<path d="M23.1532 12.4987V12.6564C23.1532 13.7558 21.2225 14.3042 20.5683 16.0321L15.5928 29.5825C15.3592 30.2912 14.9362 30.6042 14.2426 30.6042H10.8461C10.1083 30.6042 9.80577 30.2912 9.45899 29.5825L3.59568 16.0271C2.85784 14.4169 1.55188 13.7508 1.55188 12.6514V12.4937C1.55188 12.0229 1.89866 11.7424 2.43728 11.7424H11.3134C11.4211 11.7311 11.53 11.7431 11.6328 11.7776C11.7357 11.812 11.8302 11.8682 11.9103 11.9424C11.9904 12.0166 12.0542 12.1072 12.0975 12.2082C12.1409 12.3093 12.1628 12.4185 12.1619 12.5287V12.684C12.1619 13.7458 10.733 14.0989 11.5052 16.1398L14.8206 25.0273L17.6366 17.134C18.677 14.0237 16.2471 13.7558 16.2471 12.694V12.5387C16.2471 12.0654 16.5938 11.7524 17.1349 11.7524H22.2653C22.8039 11.7524 23.1532 12.0204 23.1532 12.4987Z" fill="#763FC4"/>
<path d="M23.6918 29.858V29.7002C23.6918 28.5608 25.2339 28.09 25.2339 26.2844V18.8219C25.2339 17.0163 23.6918 16.4654 23.6918 15.5238V15.366C23.6918 14.9328 24.0386 14.7375 24.5772 14.462L30.4037 11.5546C31.4833 11.0062 32.14 11.6347 32.14 12.381V26.2945C32.14 28.1 33.8616 28.5708 33.8616 29.7102V29.868C33.8616 30.3388 33.4755 30.6193 32.8975 30.6193H24.6166C24.0386 30.6042 23.6918 30.3288 23.6918 29.858ZM24.3092 5.50939C24.3092 3.27061 26.0824 1.58276 28.7361 1.58276C31.3604 1.58276 33.1336 3.27061 33.1336 5.50939C33.1336 7.74817 31.3604 9.43852 28.7361 9.43852C26.0824 9.43602 24.3092 7.7081 24.3092 5.50939Z" fill="#763FC4"/>
<path d="M55.8293 29.5498C55.8293 30.569 53.5937 30.8445 51.4712 30.8445C49.1569 30.8445 48.028 30.3737 47.7304 28.9588C46.9188 30.0982 45.3767 31.0022 42.8312 31.0022C38.7042 31.0022 35.5414 29.0765 35.5414 25.0321C35.5414 21.0654 38.8198 19.022 42.4844 19.022C43.8462 18.9853 45.1924 19.3245 46.3801 20.0037V19.886C45.9178 15.2531 45.6423 13.2498 43.6403 13.2498C40.9792 13.2498 42.0589 18.5086 38.6255 18.5086C37.0072 18.5086 35.9201 17.4894 35.9201 15.9568C35.9201 12.7364 39.7003 11.3616 43.6354 11.3616C48.8002 11.3616 52.391 14.4242 53.0083 19.295L53.8618 26.3218C54.2036 29.1115 55.8293 28.4429 55.8293 29.5498ZM46.9507 26.1666L46.7958 24.3585C46.5277 22.002 45.5243 21.103 44.4052 21.103C43.2468 21.103 42.4377 22.1623 42.4377 23.7725C42.4377 26.5622 43.3624 28.9963 44.9463 28.9963C46.2178 28.9938 46.9507 27.5013 46.9507 26.1666Z" fill="#763FC4"/>
<path d="M52.0418 34.2178C52.0418 32.53 53.2715 31.3906 54.8972 31.3906C58.8692 31.3906 57.2116 36.2212 59.6021 36.2212C60.4506 36.2212 61.0286 35.515 61.0286 34.5709C61.0286 31.5859 58.4831 31.065 58.4831 28.6409V18.8219C58.4831 16.9762 56.941 16.5054 56.941 15.5238V15.366C56.941 14.9328 57.2878 14.7375 57.7895 14.462L63.6528 11.5546C64.7325 11.0062 65.4261 11.6347 65.4261 12.381V30.8797C65.4261 32.843 64.8875 34.6886 63.9209 35.8681C62.5731 37.4783 60.9893 38.4199 58.2126 38.4199C54.5996 38.4199 52.0418 37.1227 52.0418 34.2178ZM57.0935 5.50939C57.0935 3.27061 58.8692 1.58276 61.491 1.58276C64.1546 1.58276 65.8885 3.27061 65.8885 5.50939C65.8885 7.74817 64.1669 9.43852 61.491 9.43852C58.8692 9.43602 57.0935 7.7081 57.0935 5.50939Z" fill="#763FC4"/>
<path d="M85.3673 24.9496C85.291 27.1082 82.5906 30.9973 77.5389 30.9973C71.9436 30.9973 68.011 27.0306 68.011 21.0605C68.011 15.2482 72.438 11.3591 77.4995 11.3591C82.561 11.3591 84.8778 14.2665 84.8778 16.7407C84.8865 17.2512 84.749 17.7532 84.4822 18.1854C84.2153 18.6176 83.8306 18.9614 83.3751 19.1748L75.6869 23.5747C76.6904 25.185 78.1931 26.1266 80.0844 26.1266C81.7421 26.1266 83.2472 25.3402 83.9408 24.3986C84.4819 23.8477 85.4066 24.0831 85.3673 24.9496ZM74.2211 17.4068C74.1978 18.8058 74.3929 20.1997 74.7991 21.5363L78.3874 19.3376C78.7008 19.1109 78.9557 18.8102 79.13 18.4613C79.3043 18.1124 79.393 17.7257 79.3884 17.3342C79.3884 16.0821 78.7711 13.2899 76.806 13.2899C75.2245 13.2849 74.2211 15.1305 74.2211 17.4068Z" fill="#763FC4"/>
<path d="M105.906 8.26382C105.907 8.24715 105.907 8.23041 105.906 8.21374C105.91 8.15193 105.902 8.08995 105.884 8.03093C105.864 7.97267 105.834 7.91843 105.795 7.87066L105.758 7.8331C105.727 7.80066 105.691 7.77209 105.653 7.74795L105.616 7.72542C105.567 7.70204 105.515 7.68602 105.461 7.67784L93.6088 6.26044C93.4049 6.25391 93.2053 6.32136 93.0456 6.45077C92.871 6.59263 92.7582 6.79871 92.7315 7.02453C92.7048 7.25036 92.7664 7.47781 92.903 7.6578L95.7166 11.4843V16.2423C95.7097 16.461 95.7842 16.6743 95.9251 16.8396C96.066 17.0049 96.2629 17.1099 96.4766 17.1338H96.5676C96.7758 17.1308 96.9762 17.0527 97.1332 16.9134L105.756 8.57184C105.795 8.5333 105.827 8.48845 105.852 8.43912C105.859 8.42539 105.864 8.41116 105.869 8.39655C105.887 8.35396 105.899 8.30941 105.906 8.26382ZM93.9507 7.33726L103.075 8.43662L96.4175 10.6904L93.9507 7.33726ZM96.7373 15.8692V11.6771L103.395 9.42328L96.7373 15.8692Z" fill="#50EFD4"/>
<path d="M106.388 29.858V29.7002C106.388 28.5608 107.93 28.09 107.93 26.2845V18.8219C107.93 17.0138 106.388 16.4654 106.388 15.5213V15.366C106.388 14.9328 106.735 14.7375 107.274 14.462L113.1 11.5546C114.18 11.0062 114.834 11.6347 114.834 12.381V26.2945C114.834 28.1 116.57 28.5708 116.57 29.7102V29.868C116.57 30.3388 116.184 30.6193 115.606 30.6193H107.313C106.74 30.6042 106.388 30.3288 106.388 29.858ZM107.005 5.50939C107.005 3.27061 108.779 1.58277 111.432 1.58277C114.064 1.58026 115.84 3.26811 115.84 5.50939C115.84 7.7081 114.066 9.43602 111.442 9.43602C108.779 9.43352 107.005 7.7056 107.005 5.50939Z" fill="#763FC4"/>
<path d="M119.964 23.7301V14.4219H118.489C118.373 14.4226 118.258 14.3997 118.151 14.3547C118.043 14.3097 117.946 14.2434 117.864 14.1598C117.783 14.0761 117.718 13.9767 117.675 13.8673C117.631 13.758 117.609 13.6409 117.611 13.5229V12.6539C117.603 12.5332 117.62 12.4121 117.662 12.2989C117.704 12.1856 117.769 12.0828 117.853 11.9974C117.937 11.9119 118.038 11.8459 118.15 11.8036C118.261 11.7613 118.38 11.7439 118.498 11.7524H119.236C121.59 11.7524 123.442 10.1797 123.944 7.78568C124.059 7.15712 124.482 6.76395 124.984 6.76395H125.872C126.008 6.75315 126.144 6.77191 126.273 6.81899C126.401 6.86606 126.518 6.94038 126.616 7.037C126.714 7.13363 126.79 7.25035 126.841 7.37943C126.891 7.50851 126.914 7.64699 126.907 7.78568V11.7524H130.882C130.999 11.7503 131.115 11.7723 131.223 11.8169C131.331 11.8614 131.43 11.9278 131.512 12.0119C131.595 12.096 131.66 12.1962 131.704 12.3065C131.748 12.4168 131.769 12.5349 131.767 12.6539V13.5229C131.769 13.642 131.748 13.7604 131.704 13.871C131.661 13.9816 131.596 14.0821 131.513 14.1665C131.43 14.2509 131.332 14.3174 131.223 14.3622C131.115 14.4069 130.999 14.4289 130.882 14.4269H126.907V23.8478C126.907 25.1825 127.679 25.9689 128.644 25.9689C130.149 25.9689 130.766 25.2176 131.189 24.5164C131.73 23.8077 132.665 24.0456 132.665 24.7919C132.665 27.8145 130.466 30.9974 126.27 30.9974C122.434 30.9974 119.964 28.4831 119.964 23.7301Z" fill="#763FC4"/>
<path d="M133.464 21.1381C133.464 15.3258 138.363 11.3716 143.88 11.3716C149.667 11.3716 154.455 15.456 154.455 21.2282C154.455 27.0005 149.783 31.0097 144.158 31.0097C138.248 30.9972 133.464 26.8327 133.464 21.1381ZM147.429 24.2408C147.429 21.1781 145.845 13.2723 142.8 13.2723C140.948 13.2723 140.292 15.0002 140.292 18.1831C140.292 21.3659 141.836 29.0614 144.964 29.0614C146.772 29.0715 147.429 27.1858 147.429 24.2408Z" fill="#763FC4"/>
<path d="M102.824 23.9078C102.015 25.0071 100.704 26.1841 98.5425 26.1841C94.7254 26.1841 92.2561 22.8084 92.2561 17.7023C92.2561 16.072 92.748 14.6446 93.5867 13.8858C94.1991 12.5085 93.0358 11.6946 91.2945 12.491C88.3038 13.9935 86.201 16.9986 86.201 21.1581C86.201 26.3043 90.173 31.0147 96.2281 31.0147C101.513 31.0147 104.175 27.7592 104.29 24.3385C104.28 23.4745 103.326 23.2892 102.824 23.9078Z" fill="#763FC4"/>
</svg>
